<?xml version="1.0" encoding="UTF-8" standalone="no"?>
<svg xmlns="http://www.w3.org/2000/svg" xmlns:xlink="http://www.w3.org/1999/xlink" contentScriptType="application/ecmascript" contentStyleType="text/css" height="752px" preserveAspectRatio="none" style="width:1291px;height:752px;background:#FFFFFF;" version="1.1" viewBox="0 0 1291 752" width="1291px" zoomAndPan="magnify"><defs><filter height="300%" id="f10nr7u1a54bqm" width="300%" x="-1" y="-1"><feGaussianBlur result="blurOut" stdDeviation="2.0"/><feColorMatrix in="blurOut" result="blurOut2" type="matrix" values="0 0 0 0 0 0 0 0 0 0 0 0 0 0 0 0 0 0 .4 0"/><feOffset dx="4.0" dy="4.0" in="blurOut2" result="blurOut3"/><feBlend in="SourceGraphic" in2="blurOut3" mode="normal"/></filter></defs><g><rect fill="#FFBBBB" filter="url(#f10nr7u1a54bqm)" height="644.0703" style="stroke:#A80036;stroke-width:1.0;" width="10" x="25.5" y="56.2969"/><rect fill="#FFFFFF" filter="url(#f10nr7u1a54bqm)" height="584.7734" style="stroke:#A80036;stroke-width:1.0;" width="10" x="133.5" y="115.5938"/><rect fill="#FFFFFF" filter="url(#f10nr7u1a54bqm)" height="393.9141" style="stroke:#A80036;stroke-width:1.0;" width="10" x="327.5" y="306.4531"/><rect fill="#FFFFFF" filter="url(#f10nr7u1a54bqm)" height="364.7813" style="stroke:#A80036;stroke-width:1.0;" width="10" x="490.5" y="335.5859"/><rect fill="#FFFFFF" filter="url(#f10nr7u1a54bqm)" height="127.5938" style="stroke:#A80036;stroke-width:1.0;" width="10" x="1110.5" y="572.7734"/><rect fill="#FFFFFF" filter="url(#f10nr7u1a54bqm)" height="68.2969" style="stroke:#A80036;stroke-width:1.0;" width="10" x="1244" y="632.0703"/><line style="stroke:#A80036;stroke-width:1.0;stroke-dasharray:5.0,5.0;" x1="30" x2="30" y1="40.2969" y2="709.3672"/><line style="stroke:#A80036;stroke-width:1.0;stroke-dasharray:5.0,5.0;" x1="138.5" x2="138.5" y1="96.9453" y2="709.3672"/><line style="stroke:#A80036;stroke-width:1.0;stroke-dasharray:5.0,5.0;" x1="332" x2="332" y1="156.2422" y2="709.3672"/><line style="stroke:#A80036;stroke-width:1.0;stroke-dasharray:5.0,5.0;" x1="495.5" x2="495.5" y1="215.5391" y2="709.3672"/><line style="stroke:#A80036;stroke-width:1.0;stroke-dasharray:5.0,5.0;" x1="622.5" x2="622.5" y1="376.2344" y2="709.3672"/><line style="stroke:#A80036;stroke-width:1.0;stroke-dasharray:5.0,5.0;" x1="723.5" x2="723.5" y1="435.5313" y2="709.3672"/><line style="stroke:#A80036;stroke-width:1.0;stroke-dasharray:5.0,5.0;" x1="817.5" x2="817.5" y1="494.8281" y2="709.3672"/><line style="stroke:#A80036;stroke-width:1.0;stroke-dasharray:5.0,5.0;" x1="956.5" x2="956.5" y1="554.125" y2="709.3672"/><line style="stroke:#A80036;stroke-width:1.0;stroke-dasharray:5.0,5.0;" x1="1115.5" x2="1115.5" y1="613.4219" y2="709.3672"/><line style="stroke:#A80036;stroke-width:1.0;stroke-dasharray:5.0,5.0;" x1="1248.5" x2="1248.5" y1="672.7188" y2="709.3672"/><rect fill="#FEFECE" filter="url(#f10nr7u1a54bqm)" height="30.2969" style="stroke:#A80036;stroke-width:1.5;" width="47" x="5" y="5"/><text fill="#000000" font-family="sans-serif" font-size="14" lengthAdjust="spacing" textLength="33" x="12" y="24.9951">Main</text><rect fill="#FEFECE" filter="url(#f10nr7u1a54bqm)" height="30.2969" style="stroke:#A80036;stroke-width:1.5;" width="47" x="5" y="708.3672"/><text fill="#000000" font-family="sans-serif" font-size="14" lengthAdjust="spacing" textLength="33" x="12" y="728.3623">Main</text><rect fill="#FEFECE" filter="url(#f10nr7u1a54bqm)" height="30.2969" style="stroke:#A80036;stroke-width:1.5;" width="80" x="96.5" y="708.3672"/><text fill="#000000" font-family="sans-serif" font-size="14" lengthAdjust="spacing" textLength="66" x="103.5" y="728.3623">Interface</text><rect fill="#FEFECE" filter="url(#f10nr7u1a54bqm)" height="30.2969" style="stroke:#A80036;stroke-width:1.5;" width="91" x="285" y="708.3672"/><text fill="#000000" font-family="sans-serif" font-size="14" lengthAdjust="spacing" textLength="77" x="292" y="728.3623">Controleur</text><rect fill="#FEFECE" filter="url(#f10nr7u1a54bqm)" height="30.2969" style="stroke:#A80036;stroke-width:1.5;" width="100" x="443.5" y="708.3672"/><text fill="#000000" font-family="sans-serif" font-size="14" lengthAdjust="spacing" textLength="86" x="450.5" y="728.3623">AddPorteET</text><rect fill="#FEFECE" filter="url(#f10nr7u1a54bqm)" height="30.2969" style="stroke:#A80036;stroke-width:1.5;" width="119" x="561.5" y="708.3672"/><text fill="#000000" font-family="sans-serif" font-size="14" lengthAdjust="spacing" textLength="105" x="568.5" y="728.3623">OperateurAND</text><rect fill="#FEFECE" filter="url(#f10nr7u1a54bqm)" height="30.2969" style="stroke:#A80036;stroke-width:1.5;" width="54" x="694.5" y="708.3672"/><text fill="#000000" font-family="sans-serif" font-size="14" lengthAdjust="spacing" textLength="40" x="701.5" y="728.3623">Porte</text><rect fill="#FEFECE" filter="url(#f10nr7u1a54bqm)" height="30.2969" style="stroke:#A80036;stroke-width:1.5;" width="106" x="762.5" y="708.3672"/><text fill="#000000" font-family="sans-serif" font-size="14" lengthAdjust="spacing" textLength="92" x="769.5" y="728.3623">Composante</text><rect fill="#FEFECE" filter="url(#f10nr7u1a54bqm)" height="30.2969" style="stroke:#A80036;stroke-width:1.5;" width="145" x="882.5" y="708.3672"/><text fill="#000000" font-family="sans-serif" font-size="14" lengthAdjust="spacing" textLength="131" x="889.5" y="728.3623">ComposanteJlabel</text><rect fill="#FEFECE" filter="url(#f10nr7u1a54bqm)" height="30.2969" style="stroke:#A80036;stroke-width:1.5;" width="144" x="1041.5" y="708.3672"/><text fill="#000000" font-family="sans-serif" font-size="14" lengthAdjust="spacing" textLength="130" x="1048.5" y="728.3623">CircuitJlayredPane</text><rect fill="#FEFECE" filter="url(#f10nr7u1a54bqm)" height="30.2969" style="stroke:#A80036;stroke-width:1.5;" width="61" x="1216.5" y="708.3672"/><text fill="#000000" font-family="sans-serif" font-size="14" lengthAdjust="spacing" textLength="47" x="1223.5" y="728.3623">Circuit</text><rect fill="#FFBBBB" filter="url(#f10nr7u1a54bqm)" height="644.0703" style="stroke:#A80036;stroke-width:1.0;" width="10" x="25.5" y="56.2969"/><rect fill="#FFFFFF" filter="url(#f10nr7u1a54bqm)" height="584.7734" style="stroke:#A80036;stroke-width:1.0;" width="10" x="133.5" y="115.5938"/><rect fill="#FFFFFF" filter="url(#f10nr7u1a54bqm)" height="393.9141" style="stroke:#A80036;stroke-width:1.0;" width="10" x="327.5" y="306.4531"/><rect fill="#FFFFFF" filter="url(#f10nr7u1a54bqm)" height="364.7813" style="stroke:#A80036;stroke-width:1.0;" width="10" x="490.5" y="335.5859"/><rect fill="#FFFFFF" filter="url(#f10nr7u1a54bqm)" height="127.5938" style="stroke:#A80036;stroke-width:1.0;" width="10" x="1110.5" y="572.7734"/><rect fill="#FFFFFF" filter="url(#f10nr7u1a54bqm)" height="68.2969" style="stroke:#A80036;stroke-width:1.0;" width="10" x="1244" y="632.0703"/><polygon fill="#A80036" points="13.5,52.2969,23.5,56.2969,13.5,60.2969,17.5,56.2969" style="stroke:#A80036;stroke-width:1.0;"/><line style="stroke:#A80036;stroke-width:1.0;" x1="0" x2="19.5" y1="56.2969" y2="56.2969"/><polygon fill="#A80036" points="84.5,81.4297,94.5,85.4297,84.5,89.4297,88.5,85.4297" style="stroke:#A80036;stroke-width:1.0;"/><line style="stroke:#A80036;stroke-width:1.0;" x1="35.5" x2="90.5" y1="85.4297" y2="85.4297"/><text fill="#000000" font-family="sans-serif" font-size="13" lengthAdjust="spacing" textLength="37" x="42.5" y="80.3638">new()</text><rect fill="#FEFECE" filter="url(#f10nr7u1a54bqm)" height="30.2969" style="stroke:#A80036;stroke-width:1.5;" width="80" x="96.5" y="64.2969"/><text fill="#000000" font-family="sans-serif" font-size="14" lengthAdjust="spacing" textLength="66" x="103.5" y="84.292">Interface</text><polygon fill="#A80036" points="46.5,111.5938,36.5,115.5938,46.5,119.5938,42.5,115.5938" style="stroke:#A80036;stroke-width:1.0;"/><line style="stroke:#A80036;stroke-width:1.0;stroke-dasharray:2.0,2.0;" x1="40.5" x2="132.5" y1="115.5938" y2="115.5938"/><polygon fill="#A80036" points="273,140.7266,283,144.7266,273,148.7266,277,144.7266" style="stroke:#A80036;stroke-width:1.0;"/><line style="stroke:#A80036;stroke-width:1.0;" x1="143.5" x2="279" y1="144.7266" y2="144.7266"/><text fill="#000000" font-family="sans-serif" font-size="13" lengthAdjust="spacing" textLength="37" x="150.5" y="139.6606">new()</text><rect fill="#FEFECE" filter="url(#f10nr7u1a54bqm)" height="30.2969" style="stroke:#A80036;stroke-width:1.5;" width="91" x="285" y="123.5938"/><text fill="#000000" font-family="sans-serif" font-size="14" lengthAdjust="spacing" textLength="77" x="292" y="143.5889">Controleur</text><polygon fill="#A80036" points="154.5,170.8906,144.5,174.8906,154.5,178.8906,150.5,174.8906" style="stroke:#A80036;stroke-width:1.0;"/><line style="stroke:#A80036;stroke-width:1.0;stroke-dasharray:2.0,2.0;" x1="148.5" x2="331.5" y1="174.8906" y2="174.8906"/><polygon fill="#A80036" points="431.5,200.0234,441.5,204.0234,431.5,208.0234,435.5,204.0234" style="stroke:#A80036;stroke-width:1.0;"/><line style="stroke:#A80036;stroke-width:1.0;" x1="143.5" x2="437.5" y1="204.0234" y2="204.0234"/><text fill="#000000" font-family="sans-serif" font-size="13" lengthAdjust="spacing" textLength="37" x="150.5" y="198.9575">new()</text><rect fill="#FEFECE" filter="url(#f10nr7u1a54bqm)" height="30.2969" style="stroke:#A80036;stroke-width:1.5;" width="100" x="443.5" y="182.8906"/><text fill="#000000" font-family="sans-serif" font-size="14" lengthAdjust="spacing" textLength="86" x="450.5" y="202.8857">AddPorteET</text><polygon fill="#A80036" points="154.5,230.1875,144.5,234.1875,154.5,238.1875,150.5,234.1875" style="stroke:#A80036;stroke-width:1.0;"/><line style="stroke:#A80036;stroke-width:1.0;stroke-dasharray:2.0,2.0;" x1="148.5" x2="494.5" y1="234.1875" y2="234.1875"/><polygon fill="#A80036" points="483.5,259.3203,493.5,263.3203,483.5,267.3203,487.5,263.3203" style="stroke:#A80036;stroke-width:1.0;"/><line style="stroke:#A80036;stroke-width:1.0;" x1="332.5" x2="489.5" y1="263.3203" y2="263.3203"/><text fill="#000000" font-family="sans-serif" font-size="13" lengthAdjust="spacing" textLength="139" x="339.5" y="258.2544">addNextCommande()</text><polygon fill="#A80036" points="343.5,273.3203,333.5,277.3203,343.5,281.3203,339.5,277.3203" style="stroke:#A80036;stroke-width:1.0;"/><line style="stroke:#A80036;stroke-width:1.0;stroke-dasharray:2.0,2.0;" x1="337.5" x2="494.5" y1="277.3203" y2="277.3203"/><polygon fill="#A80036" points="315.5,302.4531,325.5,306.4531,315.5,310.4531,319.5,306.4531" style="stroke:#A80036;stroke-width:1.0;"/><line style="stroke:#A80036;stroke-width:1.0;" x1="143.5" x2="321.5" y1="306.4531" y2="306.4531"/><text fill="#000000" font-family="sans-serif" font-size="13" lengthAdjust="spacing" textLength="165" x="150.5" y="301.3872">&lt;Event Ajouter Porte ET&gt;</text><polygon fill="#A80036" points="478.5,331.5859,488.5,335.5859,478.5,339.5859,482.5,335.5859" style="stroke:#A80036;stroke-width:1.0;"/><line style="stroke:#A80036;stroke-width:1.0;" x1="337.5" x2="484.5" y1="335.5859" y2="335.5859"/><text fill="#000000" font-family="sans-serif" font-size="13" lengthAdjust="spacing" textLength="82" x="344.5" y="330.52">execute(x,y)</text><polygon fill="#A80036" points="549.5,360.7188,559.5,364.7188,549.5,368.7188,553.5,364.7188" style="stroke:#A80036;stroke-width:1.0;"/><line style="stroke:#A80036;stroke-width:1.0;" x1="500.5" x2="555.5" y1="364.7188" y2="364.7188"/><text fill="#000000" font-family="sans-serif" font-size="13" lengthAdjust="spacing" textLength="37" x="507.5" y="359.6528">new()</text><rect fill="#FEFECE" filter="url(#f10nr7u1a54bqm)" height="30.2969" style="stroke:#A80036;stroke-width:1.5;" width="119" x="561.5" y="343.5859"/><text fill="#000000" font-family="sans-serif" font-size="14" lengthAdjust="spacing" textLength="105" x="568.5" y="363.5811">OperateurAND</text><polygon fill="#A80036" points="511.5,390.8828,501.5,394.8828,511.5,398.8828,507.5,394.8828" style="stroke:#A80036;stroke-width:1.0;"/><line style="stroke:#A80036;stroke-width:1.0;stroke-dasharray:2.0,2.0;" x1="505.5" x2="622" y1="394.8828" y2="394.8828"/><polygon fill="#A80036" points="682.5,420.0156,692.5,424.0156,682.5,428.0156,686.5,424.0156" style="stroke:#A80036;stroke-width:1.0;"/><line style="stroke:#A80036;stroke-width:1.0;" x1="500.5" x2="688.5" y1="424.0156" y2="424.0156"/><text fill="#000000" font-family="sans-serif" font-size="13" lengthAdjust="spacing" textLength="37" x="507.5" y="418.9497">new()</text><rect fill="#FEFECE" filter="url(#f10nr7u1a54bqm)" height="30.2969" style="stroke:#A80036;stroke-width:1.5;" width="54" x="694.5" y="402.8828"/><text fill="#000000" font-family="sans-serif" font-size="14" lengthAdjust="spacing" textLength="40" x="701.5" y="422.8779">Porte</text><polygon fill="#A80036" points="511.5,450.1797,501.5,454.1797,511.5,458.1797,507.5,454.1797" style="stroke:#A80036;stroke-width:1.0;"/><line style="stroke:#A80036;stroke-width:1.0;stroke-dasharray:2.0,2.0;" x1="505.5" x2="722.5" y1="454.1797" y2="454.1797"/><polygon fill="#A80036" points="750.5,479.3125,760.5,483.3125,750.5,487.3125,754.5,483.3125" style="stroke:#A80036;stroke-width:1.0;"/><line style="stroke:#A80036;stroke-width:1.0;" x1="500.5" x2="756.5" y1="483.3125" y2="483.3125"/><text fill="#000000" font-family="sans-serif" font-size="13" lengthAdjust="spacing" textLength="37" x="507.5" y="478.2466">new()</text><rect fill="#FEFECE" filter="url(#f10nr7u1a54bqm)" height="30.2969" style="stroke:#A80036;stroke-width:1.5;" width="106" x="762.5" y="462.1797"/><text fill="#000000" font-family="sans-serif" font-size="14" lengthAdjust="spacing" textLength="92" x="769.5" y="482.1748">Composante</text><polygon fill="#A80036" points="511.5,509.4766,501.5,513.4766,511.5,517.4766,507.5,513.4766" style="stroke:#A80036;stroke-width:1.0;"/><line style="stroke:#A80036;stroke-width:1.0;stroke-dasharray:2.0,2.0;" x1="505.5" x2="816.5" y1="513.4766" y2="513.4766"/><polygon fill="#A80036" points="870.5,538.6094,880.5,542.6094,870.5,546.6094,874.5,542.6094" style="stroke:#A80036;stroke-width:1.0;"/><line style="stroke:#A80036;stroke-width:1.0;" x1="500.5" x2="876.5" y1="542.6094" y2="542.6094"/><text fill="#000000" font-family="sans-serif" font-size="13" lengthAdjust="spacing" textLength="37" x="507.5" y="537.5435">new()</text><rect fill="#FEFECE" filter="url(#f10nr7u1a54bqm)" height="30.2969" style="stroke:#A80036;stroke-width:1.5;" width="145" x="882.5" y="521.4766"/><text fill="#000000" font-family="sans-serif" font-size="14" lengthAdjust="spacing" textLength="131" x="889.5" y="541.4717">ComposanteJlabel</text><polygon fill="#A80036" points="511.5,568.7734,501.5,572.7734,511.5,576.7734,507.5,572.7734" style="stroke:#A80036;stroke-width:1.0;"/><line style="stroke:#A80036;stroke-width:1.0;stroke-dasharray:2.0,2.0;" x1="505.5" x2="956" y1="572.7734" y2="572.7734"/><polygon fill="#A80036" points="1024.5,597.9063,1034.5,601.9063,1024.5,605.9063,1028.5,601.9063" style="stroke:#A80036;stroke-width:1.0;"/><line style="stroke:#A80036;stroke-width:1.0;" x1="500.5" x2="1030.5" y1="601.9063" y2="601.9063"/><text fill="#000000" font-family="sans-serif" font-size="13" lengthAdjust="spacing" textLength="67" x="507.5" y="596.8403">ajouter(...)</text><rect fill="#FEFECE" filter="url(#f10nr7u1a54bqm)" height="30.2969" style="stroke:#A80036;stroke-width:1.5;" width="144" x="1041.5" y="580.7734"/><text fill="#000000" font-family="sans-serif" font-size="14" lengthAdjust="spacing" textLength="130" x="1048.5" y="600.7686">CircuitJlayredPane</text><polygon fill="#A80036" points="511.5,628.0703,501.5,632.0703,511.5,636.0703,507.5,632.0703" style="stroke:#A80036;stroke-width:1.0;"/><line style="stroke:#A80036;stroke-width:1.0;stroke-dasharray:2.0,2.0;" x1="505.5" x2="1109.5" y1="632.0703" y2="632.0703"/><polygon fill="#A80036" points="1199.5,657.2031,1209.5,661.2031,1199.5,665.2031,1203.5,661.2031" style="stroke:#A80036;stroke-width:1.0;"/><line style="stroke:#A80036;stroke-width:1.0;" x1="1120.5" x2="1205.5" y1="661.2031" y2="661.2031"/><text fill="#000000" font-family="sans-serif" font-size="13" lengthAdjust="spacing" textLength="67" x="1127.5" y="656.1372">ajouter(...)</text><rect fill="#FEFECE" filter="url(#f10nr7u1a54bqm)" height="30.2969" style="stroke:#A80036;stroke-width:1.5;" width="61" x="1216.5" y="640.0703"/><text fill="#000000" font-family="sans-serif" font-size="14" lengthAdjust="spacing" textLength="47" x="1223.5" y="660.0654">Circuit</text><polygon fill="#A80036" points="1131.5,687.3672,1121.5,691.3672,1131.5,695.3672,1127.5,691.3672" style="stroke:#A80036;stroke-width:1.0;"/><line style="stroke:#A80036;stroke-width:1.0;stroke-dasharray:2.0,2.0;" x1="1125.5" x2="1243" y1="691.3672" y2="691.3672"/><!--MD5=[2b3f787a5e3eff1b20ba9736edda712e]
@startuml
-> Main
activate Main #FFBBBB

Create Interface
Main -> Interface : new()
Interface - -> Main : 
activate Interface
Create Controleur
Interface -> Controleur : new()
Controleur - -> Interface : 
Create AddPorteET
Interface -> AddPorteET : new()
AddPorteET - -> Interface : 
Controleur -> AddPorteET : addNextCommande()
AddPorteET - -> Controleur 

Interface -> Controleur : <Event Ajouter Porte ET>
Activate Controleur
Controleur -> AddPorteET : execute(x,y)
Activate AddPorteET
Create OperateurAND
AddPorteET -> OperateurAND : new()
OperateurAND - -> AddPorteET : 
Create Porte
AddPorteET -> Porte : new()
Porte - -> AddPorteET : 
Create Composante
AddPorteET -> Composante : new()
Composante - -> AddPorteET : 

Create ComposanteJlabel
AddPorteET -> ComposanteJlabel : new()
ComposanteJlabel - -> AddPorteET : 

Create CircuitJlayredPane
Activate CircuitJlayredPane
AddPorteET -> CircuitJlayredPane : ajouter(...)
CircuitJlayredPane - -> AddPorteET : 

Create Circuit
Activate Circuit
CircuitJlayredPane -> Circuit : ajouter(...)
Circuit - -> CircuitJlayredPane :
@enduml

PlantUML version 1.2021.16beta3(Unknown compile time)
(GPL source distribution)
Java Runtime: Java(TM) SE Runtime Environment
JVM: Java HotSpot(TM) 64-Bit Server VM
Default Encoding: UTF-8
Language: en
Country: US
--></g></svg>