<?xml version="1.0" encoding="UTF-8" standalone="no"?>
<svg xmlns="http://www.w3.org/2000/svg" xmlns:xlink="http://www.w3.org/1999/xlink" contentScriptType="application/ecmascript" contentStyleType="text/css" height="574px" preserveAspectRatio="none" style="width:985px;height:574px;background:#FFFFFF;" version="1.1" viewBox="0 0 985 574" width="985px" zoomAndPan="magnify"><defs><filter height="300%" id="f1astwe65na8u5" width="300%" x="-1" y="-1"><feGaussianBlur result="blurOut" stdDeviation="2.0"/><feColorMatrix in="blurOut" result="blurOut2" type="matrix" values="0 0 0 0 0 0 0 0 0 0 0 0 0 0 0 0 0 0 .4 0"/><feOffset dx="4.0" dy="4.0" in="blurOut2" result="blurOut3"/><feBlend in="SourceGraphic" in2="blurOut3" mode="normal"/></filter></defs><g><rect fill="#FFBBBB" filter="url(#f1astwe65na8u5)" height="466.1797" style="stroke:#A80036;stroke-width:1.0;" width="10" x="25.5" y="56.2969"/><rect fill="#FFFFFF" filter="url(#f1astwe65na8u5)" height="406.8828" style="stroke:#A80036;stroke-width:1.0;" width="10" x="133.5" y="115.5938"/><rect fill="#FFFFFF" filter="url(#f1astwe65na8u5)" height="230.0234" style="stroke:#A80036;stroke-width:1.0;" width="10" x="274.5" y="292.4531"/><rect fill="#FFFFFF" filter="url(#f1astwe65na8u5)" height="200.8906" style="stroke:#A80036;stroke-width:1.0;" width="10" x="412" y="321.5859"/><rect fill="#FFFFFF" filter="url(#f1astwe65na8u5)" height="161.7578" style="stroke:#A80036;stroke-width:1.0;" width="10" x="631" y="360.7188"/><line style="stroke:#A80036;stroke-width:1.0;stroke-dasharray:5.0,5.0;" x1="30" x2="30" y1="40.2969" y2="531.4766"/><line style="stroke:#A80036;stroke-width:1.0;stroke-dasharray:5.0,5.0;" x1="138.5" x2="138.5" y1="96.9453" y2="531.4766"/><line style="stroke:#A80036;stroke-width:1.0;stroke-dasharray:5.0,5.0;" x1="279" x2="279" y1="156.2422" y2="531.4766"/><line style="stroke:#A80036;stroke-width:1.0;stroke-dasharray:5.0,5.0;" x1="417" x2="417" y1="215.5391" y2="531.4766"/><line style="stroke:#A80036;stroke-width:1.0;stroke-dasharray:5.0,5.0;" x1="636" x2="636" y1="362.2344" y2="531.4766"/><line style="stroke:#A80036;stroke-width:1.0;stroke-dasharray:5.0,5.0;" x1="770" x2="770" y1="407.5313" y2="531.4766"/><line style="stroke:#A80036;stroke-width:1.0;stroke-dasharray:5.0,5.0;" x1="903" x2="903" y1="466.8281" y2="531.4766"/><rect fill="#FEFECE" filter="url(#f1astwe65na8u5)" height="30.2969" style="stroke:#A80036;stroke-width:1.5;" width="47" x="5" y="5"/><text fill="#000000" font-family="sans-serif" font-size="14" lengthAdjust="spacing" textLength="33" x="12" y="24.9951">Main</text><rect fill="#FEFECE" filter="url(#f1astwe65na8u5)" height="30.2969" style="stroke:#A80036;stroke-width:1.5;" width="47" x="5" y="530.4766"/><text fill="#000000" font-family="sans-serif" font-size="14" lengthAdjust="spacing" textLength="33" x="12" y="550.4717">Main</text><rect fill="#FEFECE" filter="url(#f1astwe65na8u5)" height="30.2969" style="stroke:#A80036;stroke-width:1.5;" width="80" x="96.5" y="530.4766"/><text fill="#000000" font-family="sans-serif" font-size="14" lengthAdjust="spacing" textLength="66" x="103.5" y="550.4717">Interface</text><rect fill="#FEFECE" filter="url(#f1astwe65na8u5)" height="30.2969" style="stroke:#A80036;stroke-width:1.5;" width="91" x="232" y="530.4766"/><text fill="#000000" font-family="sans-serif" font-size="14" lengthAdjust="spacing" textLength="77" x="239" y="550.4717">Controleur</text><rect fill="#FEFECE" filter="url(#f1astwe65na8u5)" height="30.2969" style="stroke:#A80036;stroke-width:1.5;" width="156" x="337" y="530.4766"/><text fill="#000000" font-family="sans-serif" font-size="14" lengthAdjust="spacing" textLength="142" x="344" y="550.4717">CalculerTableVerite</text><rect fill="#FEFECE" filter="url(#f1astwe65na8u5)" height="30.2969" style="stroke:#A80036;stroke-width:1.5;" width="144" x="562" y="530.4766"/><text fill="#000000" font-family="sans-serif" font-size="14" lengthAdjust="spacing" textLength="130" x="569" y="550.4717">CircuitJlayredPane</text><rect fill="#FEFECE" filter="url(#f1astwe65na8u5)" height="30.2969" style="stroke:#A80036;stroke-width:1.5;" width="97" x="720" y="530.4766"/><text fill="#000000" font-family="sans-serif" font-size="14" lengthAdjust="spacing" textLength="83" x="727" y="550.4717">tableVerite</text><rect fill="#FEFECE" filter="url(#f1astwe65na8u5)" height="30.2969" style="stroke:#A80036;stroke-width:1.5;" width="140" x="831" y="530.4766"/><text fill="#000000" font-family="sans-serif" font-size="14" lengthAdjust="spacing" textLength="126" x="838" y="550.4717">tableVeriteModel</text><rect fill="#FFBBBB" filter="url(#f1astwe65na8u5)" height="466.1797" style="stroke:#A80036;stroke-width:1.0;" width="10" x="25.5" y="56.2969"/><rect fill="#FFFFFF" filter="url(#f1astwe65na8u5)" height="406.8828" style="stroke:#A80036;stroke-width:1.0;" width="10" x="133.5" y="115.5938"/><rect fill="#FFFFFF" filter="url(#f1astwe65na8u5)" height="230.0234" style="stroke:#A80036;stroke-width:1.0;" width="10" x="274.5" y="292.4531"/><rect fill="#FFFFFF" filter="url(#f1astwe65na8u5)" height="200.8906" style="stroke:#A80036;stroke-width:1.0;" width="10" x="412" y="321.5859"/><rect fill="#FFFFFF" filter="url(#f1astwe65na8u5)" height="161.7578" style="stroke:#A80036;stroke-width:1.0;" width="10" x="631" y="360.7188"/><polygon fill="#A80036" points="13.5,52.2969,23.5,56.2969,13.5,60.2969,17.5,56.2969" style="stroke:#A80036;stroke-width:1.0;"/><line style="stroke:#A80036;stroke-width:1.0;" x1="0" x2="19.5" y1="56.2969" y2="56.2969"/><polygon fill="#A80036" points="84.5,81.4297,94.5,85.4297,84.5,89.4297,88.5,85.4297" style="stroke:#A80036;stroke-width:1.0;"/><line style="stroke:#A80036;stroke-width:1.0;" x1="35.5" x2="90.5" y1="85.4297" y2="85.4297"/><text fill="#000000" font-family="sans-serif" font-size="13" lengthAdjust="spacing" textLength="37" x="42.5" y="80.3638">new()</text><rect fill="#FEFECE" filter="url(#f1astwe65na8u5)" height="30.2969" style="stroke:#A80036;stroke-width:1.5;" width="80" x="96.5" y="64.2969"/><text fill="#000000" font-family="sans-serif" font-size="14" lengthAdjust="spacing" textLength="66" x="103.5" y="84.292">Interface</text><polygon fill="#A80036" points="46.5,111.5938,36.5,115.5938,46.5,119.5938,42.5,115.5938" style="stroke:#A80036;stroke-width:1.0;"/><line style="stroke:#A80036;stroke-width:1.0;stroke-dasharray:2.0,2.0;" x1="40.5" x2="132.5" y1="115.5938" y2="115.5938"/><polygon fill="#A80036" points="220,140.7266,230,144.7266,220,148.7266,224,144.7266" style="stroke:#A80036;stroke-width:1.0;"/><line style="stroke:#A80036;stroke-width:1.0;" x1="143.5" x2="226" y1="144.7266" y2="144.7266"/><text fill="#000000" font-family="sans-serif" font-size="13" lengthAdjust="spacing" textLength="37" x="150.5" y="139.6606">new()</text><rect fill="#FEFECE" filter="url(#f1astwe65na8u5)" height="30.2969" style="stroke:#A80036;stroke-width:1.5;" width="91" x="232" y="123.5938"/><text fill="#000000" font-family="sans-serif" font-size="14" lengthAdjust="spacing" textLength="77" x="239" y="143.5889">Controleur</text><polygon fill="#A80036" points="154.5,170.8906,144.5,174.8906,154.5,178.8906,150.5,174.8906" style="stroke:#A80036;stroke-width:1.0;"/><line style="stroke:#A80036;stroke-width:1.0;stroke-dasharray:2.0,2.0;" x1="148.5" x2="278.5" y1="174.8906" y2="174.8906"/><polygon fill="#A80036" points="325,200.0234,335,204.0234,325,208.0234,329,204.0234" style="stroke:#A80036;stroke-width:1.0;"/><line style="stroke:#A80036;stroke-width:1.0;" x1="143.5" x2="331" y1="204.0234" y2="204.0234"/><text fill="#000000" font-family="sans-serif" font-size="13" lengthAdjust="spacing" textLength="37" x="150.5" y="198.9575">new()</text><rect fill="#FEFECE" filter="url(#f1astwe65na8u5)" height="30.2969" style="stroke:#A80036;stroke-width:1.5;" width="156" x="337" y="182.8906"/><text fill="#000000" font-family="sans-serif" font-size="14" lengthAdjust="spacing" textLength="142" x="344" y="202.8857">CalculerTableVerite</text><polygon fill="#A80036" points="154.5,230.1875,144.5,234.1875,154.5,238.1875,150.5,234.1875" style="stroke:#A80036;stroke-width:1.0;"/><line style="stroke:#A80036;stroke-width:1.0;stroke-dasharray:2.0,2.0;" x1="148.5" x2="416" y1="234.1875" y2="234.1875"/><polygon fill="#A80036" points="267.5,259.3203,277.5,263.3203,267.5,267.3203,271.5,263.3203" style="stroke:#A80036;stroke-width:1.0;"/><line style="stroke:#A80036;stroke-width:1.0;" x1="143.5" x2="273.5" y1="263.3203" y2="263.3203"/><text fill="#000000" font-family="sans-serif" font-size="13" lengthAdjust="spacing" textLength="95" x="150.5" y="258.2544">ajouterAction()</text><polygon fill="#A80036" points="262.5,288.4531,272.5,292.4531,262.5,296.4531,266.5,292.4531" style="stroke:#A80036;stroke-width:1.0;"/><line style="stroke:#A80036;stroke-width:1.0;" x1="143.5" x2="268.5" y1="292.4531" y2="292.4531"/><text fill="#000000" font-family="sans-serif" font-size="13" lengthAdjust="spacing" textLength="112" x="150.5" y="287.3872">&lt;Event Calculer&gt;</text><polygon fill="#A80036" points="400,317.5859,410,321.5859,400,325.5859,404,321.5859" style="stroke:#A80036;stroke-width:1.0;"/><line style="stroke:#A80036;stroke-width:1.0;" x1="284.5" x2="406" y1="321.5859" y2="321.5859"/><text fill="#000000" font-family="sans-serif" font-size="13" lengthAdjust="spacing" textLength="82" x="291.5" y="316.52">execute(x,y)</text><polygon fill="#A80036" points="550,346.7188,560,350.7188,550,354.7188,554,350.7188" style="stroke:#A80036;stroke-width:1.0;"/><line style="stroke:#A80036;stroke-width:1.0;" x1="422" x2="556" y1="350.7188" y2="350.7188"/><text fill="#000000" font-family="sans-serif" font-size="13" lengthAdjust="spacing" textLength="116" x="429" y="345.6528">getTableVerite(...)</text><rect fill="#FEFECE" filter="url(#f1astwe65na8u5)" height="30.2969" style="stroke:#A80036;stroke-width:1.5;" width="144" x="562" y="329.5859"/><text fill="#000000" font-family="sans-serif" font-size="14" lengthAdjust="spacing" textLength="130" x="569" y="349.5811">CircuitJlayredPane</text><polygon fill="#A80036" points="708,392.0156,718,396.0156,708,400.0156,712,396.0156" style="stroke:#A80036;stroke-width:1.0;"/><line style="stroke:#A80036;stroke-width:1.0;stroke-dasharray:2.0,2.0;" x1="641" x2="714" y1="396.0156" y2="396.0156"/><text fill="#000000" font-family="sans-serif" font-size="13" lengthAdjust="spacing" textLength="27" x="648" y="390.9497">new</text><rect fill="#FEFECE" filter="url(#f1astwe65na8u5)" height="30.2969" style="stroke:#A80036;stroke-width:1.5;" width="97" x="720" y="374.8828"/><text fill="#000000" font-family="sans-serif" font-size="14" lengthAdjust="spacing" textLength="83" x="727" y="394.8779">tableVerite</text><polygon fill="#A80036" points="652,422.1797,642,426.1797,652,430.1797,648,426.1797" style="stroke:#A80036;stroke-width:1.0;"/><line style="stroke:#A80036;stroke-width:1.0;stroke-dasharray:2.0,2.0;" x1="646" x2="769.5" y1="426.1797" y2="426.1797"/><polygon fill="#A80036" points="819,451.3125,829,455.3125,819,459.3125,823,455.3125" style="stroke:#A80036;stroke-width:1.0;"/><line style="stroke:#A80036;stroke-width:1.0;stroke-dasharray:2.0,2.0;" x1="641" x2="825" y1="455.3125" y2="455.3125"/><text fill="#000000" font-family="sans-serif" font-size="13" lengthAdjust="spacing" textLength="27" x="648" y="450.2466">new</text><rect fill="#FEFECE" filter="url(#f1astwe65na8u5)" height="30.2969" style="stroke:#A80036;stroke-width:1.5;" width="140" x="831" y="434.1797"/><text fill="#000000" font-family="sans-serif" font-size="14" lengthAdjust="spacing" textLength="126" x="838" y="454.1748">tableVeriteModel</text><polygon fill="#A80036" points="652,481.4766,642,485.4766,652,489.4766,648,485.4766" style="stroke:#A80036;stroke-width:1.0;"/><line style="stroke:#A80036;stroke-width:1.0;stroke-dasharray:2.0,2.0;" x1="646" x2="902" y1="485.4766" y2="485.4766"/><polygon fill="#A80036" points="433,495.4766,423,499.4766,433,503.4766,429,499.4766" style="stroke:#A80036;stroke-width:1.0;"/><line style="stroke:#A80036;stroke-width:1.0;stroke-dasharray:2.0,2.0;" x1="427" x2="630" y1="499.4766" y2="499.4766"/><polygon fill="#A80036" points="154.5,509.4766,144.5,513.4766,154.5,517.4766,150.5,513.4766" style="stroke:#A80036;stroke-width:1.0;"/><line style="stroke:#A80036;stroke-width:1.0;stroke-dasharray:2.0,2.0;" x1="148.5" x2="411" y1="513.4766" y2="513.4766"/><!--MD5=[445cc1153a23febfbd172234b9afb9a9]
@startuml
-> Main
activate Main #FFBBBB

Create Interface
Main -> Interface : new()
Interface - -> Main : 
activate Interface
Create Controleur
Interface -> Controleur : new()
Controleur - -> Interface : 
Create CalculerTableVerite
Interface -> CalculerTableVerite : new()
CalculerTableVerite - -> Interface : 
Interface -> Controleur : ajouterAction()


Interface -> Controleur : <Event Calculer>
Activate Controleur
Controleur -> CalculerTableVerite : execute(x,y)
Activate CalculerTableVerite
Create CircuitJlayredPane

CalculerTableVerite -> CircuitJlayredPane : getTableVerite(...)
Activate CircuitJlayredPane
Create tableVerite
CircuitJlayredPane - -> tableVerite : new
tableVerite - -> CircuitJlayredPane : 

Create tableVeriteModel
CircuitJlayredPane - -> tableVeriteModel : new
tableVeriteModel - -> CircuitJlayredPane : 


CircuitJlayredPane - -> CalculerTableVerite :

CalculerTableVerite - -> Interface :
@enduml

PlantUML version 1.2021.16beta3(Unknown compile time)
(GPL source distribution)
Java Runtime: Java(TM) SE Runtime Environment
JVM: Java HotSpot(TM) 64-Bit Server VM
Default Encoding: UTF-8
Language: en
Country: US
--></g></svg>